<mxfile host="app.diagrams.net" agent="Mozilla/5.0 (Windows NT 10.0; Win64; x64) AppleWebKit/537.36 (KHTML, like Gecko) Chrome/129.0.0.0 Safari/537.36" version="24.7.17" pages="4">
  <diagram id="o_7Ptr5c01qjaHtJ_Ekb" name="Retiro">
    <mxGraphModel dx="1434" dy="746" grid="1" gridSize="10" guides="1" tooltips="1" connect="1" arrows="1" fold="1" page="1" pageScale="1" pageWidth="827" pageHeight="1169" math="0" shadow="0">
      <root>
        <mxCell id="0" />
        <mxCell id="1" parent="0" />
        <mxCell id="_8yvmMXIoiSmgLXmzyjh-1" value="" style="html=1;points=[[0,0,0,0,5],[0,1,0,0,-5],[1,0,0,0,5],[1,1,0,0,-5]];perimeter=orthogonalPerimeter;outlineConnect=0;targetShapes=umlLifeline;portConstraint=eastwest;newEdgeStyle={&quot;curved&quot;:0,&quot;rounded&quot;:0};" parent="1" vertex="1">
          <mxGeometry x="228" y="150" width="10" height="610" as="geometry" />
        </mxCell>
        <mxCell id="_8yvmMXIoiSmgLXmzyjh-2" value="Ingrese&amp;nbsp; cuenta Destino" style="html=1;verticalAlign=bottom;endArrow=block;curved=0;rounded=0;exitX=0;exitY=0;exitDx=0;exitDy=5;exitPerimeter=0;" parent="1" edge="1">
          <mxGeometry relative="1" as="geometry">
            <mxPoint x="238" y="520" as="sourcePoint" />
            <mxPoint x="578" y="520" as="targetPoint" />
            <mxPoint as="offset" />
          </mxGeometry>
        </mxCell>
        <mxCell id="Vm0_utbx6PuqvBKIMRpo-1" value="" style="html=1;points=[[0,0,0,0,5],[0,1,0,0,-5],[1,0,0,0,5],[1,1,0,0,-5]];perimeter=orthogonalPerimeter;outlineConnect=0;targetShapes=umlLifeline;portConstraint=eastwest;newEdgeStyle={&quot;curved&quot;:0,&quot;rounded&quot;:0};" parent="1" vertex="1">
          <mxGeometry x="578" y="150" width="10" height="610" as="geometry" />
        </mxCell>
        <mxCell id="Vm0_utbx6PuqvBKIMRpo-2" value="Cliente" style="text;html=1;align=center;verticalAlign=middle;whiteSpace=wrap;rounded=0;" parent="1" vertex="1">
          <mxGeometry x="203" y="110" width="60" height="30" as="geometry" />
        </mxCell>
        <mxCell id="Vm0_utbx6PuqvBKIMRpo-3" value="Retiro" style="text;html=1;align=center;verticalAlign=middle;whiteSpace=wrap;rounded=0;" parent="1" vertex="1">
          <mxGeometry x="553" y="110" width="60" height="30" as="geometry" />
        </mxCell>
        <mxCell id="Vm0_utbx6PuqvBKIMRpo-4" value="Ingrese monto" style="html=1;verticalAlign=bottom;endArrow=block;curved=0;rounded=0;exitX=0;exitY=0;exitDx=0;exitDy=5;exitPerimeter=0;" parent="1" edge="1">
          <mxGeometry relative="1" as="geometry">
            <mxPoint x="238" y="360" as="sourcePoint" />
            <mxPoint x="578" y="360" as="targetPoint" />
          </mxGeometry>
        </mxCell>
        <mxCell id="Vm0_utbx6PuqvBKIMRpo-6" value="Ingresar numero de cuenta origen" style="html=1;verticalAlign=bottom;endArrow=block;curved=0;rounded=0;exitX=0;exitY=0;exitDx=0;exitDy=5;exitPerimeter=0;" parent="1" edge="1">
          <mxGeometry relative="1" as="geometry">
            <mxPoint x="238" y="280" as="sourcePoint" />
            <mxPoint x="578" y="280" as="targetPoint" />
            <mxPoint as="offset" />
          </mxGeometry>
        </mxCell>
        <mxCell id="Vm0_utbx6PuqvBKIMRpo-7" value="Mostrar datos del retiro" style="html=1;verticalAlign=bottom;endArrow=open;dashed=1;endSize=8;curved=0;rounded=0;" parent="1" edge="1">
          <mxGeometry relative="1" as="geometry">
            <mxPoint x="238" y="600" as="targetPoint" />
            <mxPoint x="578" y="600" as="sourcePoint" />
          </mxGeometry>
        </mxCell>
        <mxCell id="KC9epu4-e7s4U2vf2Yx6-1" value="Diagrama de secuencia Clientes" style="text;html=1;align=center;verticalAlign=middle;whiteSpace=wrap;rounded=0;fontStyle=1" parent="1" vertex="1">
          <mxGeometry x="284" y="50" width="260" height="30" as="geometry" />
        </mxCell>
        <mxCell id="N5xzTgpJLEnerK8M0kIW-1" value="Ingresas datos cliente" style="html=1;verticalAlign=bottom;endArrow=block;curved=0;rounded=0;exitX=0;exitY=0;exitDx=0;exitDy=5;exitPerimeter=0;" edge="1" parent="1">
          <mxGeometry relative="1" as="geometry">
            <mxPoint x="242" y="210" as="sourcePoint" />
            <mxPoint x="582" y="210" as="targetPoint" />
            <mxPoint as="offset" />
          </mxGeometry>
        </mxCell>
        <mxCell id="gSsIw5tZetAbkaUI8fNk-1" value="Tipo de&amp;nbsp; cuenta" style="html=1;verticalAlign=bottom;endArrow=block;curved=0;rounded=0;exitX=0;exitY=0;exitDx=0;exitDy=5;exitPerimeter=0;" edge="1" parent="1">
          <mxGeometry relative="1" as="geometry">
            <mxPoint x="238" y="440" as="sourcePoint" />
            <mxPoint x="578" y="440" as="targetPoint" />
          </mxGeometry>
        </mxCell>
      </root>
    </mxGraphModel>
  </diagram>
  <diagram id="VbhrvX7ZphDSCBGy-zvy" name="Deposito">
    <mxGraphModel dx="1434" dy="746" grid="1" gridSize="10" guides="1" tooltips="1" connect="1" arrows="1" fold="1" page="1" pageScale="1" pageWidth="827" pageHeight="1169" math="0" shadow="0">
      <root>
        <mxCell id="0" />
        <mxCell id="1" parent="0" />
        <mxCell id="HlQvAXb3PCg-eXAl6Zu7-1" value="" style="html=1;points=[[0,0,0,0,5],[0,1,0,0,-5],[1,0,0,0,5],[1,1,0,0,-5]];perimeter=orthogonalPerimeter;outlineConnect=0;targetShapes=umlLifeline;portConstraint=eastwest;newEdgeStyle={&quot;curved&quot;:0,&quot;rounded&quot;:0};" parent="1" vertex="1">
          <mxGeometry x="232" y="150" width="10" height="530" as="geometry" />
        </mxCell>
        <mxCell id="HlQvAXb3PCg-eXAl6Zu7-2" value="Ingrese monto" style="html=1;verticalAlign=bottom;endArrow=block;curved=0;rounded=0;exitX=0;exitY=0;exitDx=0;exitDy=5;exitPerimeter=0;" parent="1" edge="1">
          <mxGeometry relative="1" as="geometry">
            <mxPoint x="242" y="360" as="sourcePoint" />
            <mxPoint x="582" y="360" as="targetPoint" />
          </mxGeometry>
        </mxCell>
        <mxCell id="HlQvAXb3PCg-eXAl6Zu7-4" value="" style="html=1;points=[[0,0,0,0,5],[0,1,0,0,-5],[1,0,0,0,5],[1,1,0,0,-5]];perimeter=orthogonalPerimeter;outlineConnect=0;targetShapes=umlLifeline;portConstraint=eastwest;newEdgeStyle={&quot;curved&quot;:0,&quot;rounded&quot;:0};" parent="1" vertex="1">
          <mxGeometry x="582" y="150" width="10" height="530" as="geometry" />
        </mxCell>
        <mxCell id="HlQvAXb3PCg-eXAl6Zu7-5" value="Cliente" style="text;html=1;align=center;verticalAlign=middle;whiteSpace=wrap;rounded=0;" parent="1" vertex="1">
          <mxGeometry x="207" y="110" width="60" height="30" as="geometry" />
        </mxCell>
        <mxCell id="HlQvAXb3PCg-eXAl6Zu7-6" value="Deposito" style="text;html=1;align=center;verticalAlign=middle;whiteSpace=wrap;rounded=0;" parent="1" vertex="1">
          <mxGeometry x="557" y="110" width="60" height="30" as="geometry" />
        </mxCell>
        <mxCell id="HlQvAXb3PCg-eXAl6Zu7-7" value="Ingrese numero de cuenta origen" style="html=1;verticalAlign=bottom;endArrow=block;curved=0;rounded=0;exitX=0;exitY=0;exitDx=0;exitDy=5;exitPerimeter=0;" parent="1" edge="1">
          <mxGeometry relative="1" as="geometry">
            <mxPoint x="240" y="280" as="sourcePoint" />
            <mxPoint x="580" y="280" as="targetPoint" />
          </mxGeometry>
        </mxCell>
        <mxCell id="HlQvAXb3PCg-eXAl6Zu7-9" value="Ingresar&amp;nbsp; datos del cliente" style="html=1;verticalAlign=bottom;endArrow=block;curved=0;rounded=0;exitX=0;exitY=0;exitDx=0;exitDy=5;exitPerimeter=0;" parent="1" edge="1">
          <mxGeometry relative="1" as="geometry">
            <mxPoint x="242" y="200" as="sourcePoint" />
            <mxPoint x="582" y="200" as="targetPoint" />
          </mxGeometry>
        </mxCell>
        <mxCell id="HlQvAXb3PCg-eXAl6Zu7-10" value="Mostrar deposito" style="html=1;verticalAlign=bottom;endArrow=open;dashed=1;endSize=8;curved=0;rounded=0;" parent="1" edge="1">
          <mxGeometry relative="1" as="geometry">
            <mxPoint x="244" y="640" as="targetPoint" />
            <mxPoint x="584" y="640" as="sourcePoint" />
          </mxGeometry>
        </mxCell>
        <mxCell id="BXBq-FfZ72GwpECo24LD-1" value="Diagrama de secuencia cuenta bancaria" style="text;html=1;align=center;verticalAlign=middle;whiteSpace=wrap;rounded=0;fontStyle=1" parent="1" vertex="1">
          <mxGeometry x="280" y="50" width="260" height="30" as="geometry" />
        </mxCell>
        <mxCell id="ZwZvBCqtxm5VahFPHsjv-1" value="Crear cuenta bancaria" style="html=1;verticalAlign=bottom;endArrow=block;curved=0;rounded=0;exitX=0;exitY=0;exitDx=0;exitDy=5;exitPerimeter=0;" edge="1" parent="1">
          <mxGeometry relative="1" as="geometry">
            <mxPoint x="244" y="440" as="sourcePoint" />
            <mxPoint x="584" y="440" as="targetPoint" />
          </mxGeometry>
        </mxCell>
        <mxCell id="yDRVESvBOgUoTlaqFrQI-1" value="Ingrese tipo de cuenta" style="html=1;verticalAlign=bottom;endArrow=block;curved=0;rounded=0;exitX=0;exitY=0;exitDx=0;exitDy=5;exitPerimeter=0;" edge="1" parent="1">
          <mxGeometry relative="1" as="geometry">
            <mxPoint x="244" y="520" as="sourcePoint" />
            <mxPoint x="584" y="520" as="targetPoint" />
          </mxGeometry>
        </mxCell>
        <mxCell id="yDRVESvBOgUoTlaqFrQI-2" value="Ingrese cuenta de destino" style="html=1;verticalAlign=bottom;endArrow=block;curved=0;rounded=0;exitX=0;exitY=0;exitDx=0;exitDy=5;exitPerimeter=0;" edge="1" parent="1">
          <mxGeometry relative="1" as="geometry">
            <mxPoint x="240" y="600" as="sourcePoint" />
            <mxPoint x="580" y="600" as="targetPoint" />
          </mxGeometry>
        </mxCell>
      </root>
    </mxGraphModel>
  </diagram>
  <diagram id="qiuVSKXqUD9SpJgYb6zD" name="Transferencia">
    <mxGraphModel dx="1434" dy="746" grid="1" gridSize="10" guides="1" tooltips="1" connect="1" arrows="1" fold="1" page="1" pageScale="1" pageWidth="827" pageHeight="1169" math="0" shadow="0">
      <root>
        <mxCell id="0" />
        <mxCell id="1" parent="0" />
        <mxCell id="1HVztjtbWiyIStJnnp7j-1" value="" style="html=1;points=[[0,0,0,0,5],[0,1,0,0,-5],[1,0,0,0,5],[1,1,0,0,-5]];perimeter=orthogonalPerimeter;outlineConnect=0;targetShapes=umlLifeline;portConstraint=eastwest;newEdgeStyle={&quot;curved&quot;:0,&quot;rounded&quot;:0};" parent="1" vertex="1">
          <mxGeometry x="241" y="150" width="10" height="930" as="geometry" />
        </mxCell>
        <mxCell id="1HVztjtbWiyIStJnnp7j-4" value="" style="html=1;points=[[0,0,0,0,5],[0,1,0,0,-5],[1,0,0,0,5],[1,1,0,0,-5]];perimeter=orthogonalPerimeter;outlineConnect=0;targetShapes=umlLifeline;portConstraint=eastwest;newEdgeStyle={&quot;curved&quot;:0,&quot;rounded&quot;:0};" parent="1" vertex="1">
          <mxGeometry x="591" y="150" width="10" height="930" as="geometry" />
        </mxCell>
        <mxCell id="1HVztjtbWiyIStJnnp7j-5" value="Cliente" style="text;html=1;align=center;verticalAlign=middle;whiteSpace=wrap;rounded=0;" parent="1" vertex="1">
          <mxGeometry x="216" y="110" width="60" height="30" as="geometry" />
        </mxCell>
        <mxCell id="1HVztjtbWiyIStJnnp7j-6" value="Transferencia&lt;div&gt;&lt;br&gt;&lt;/div&gt;" style="text;html=1;align=center;verticalAlign=middle;whiteSpace=wrap;rounded=0;" parent="1" vertex="1">
          <mxGeometry x="566" y="110" width="60" height="30" as="geometry" />
        </mxCell>
        <mxCell id="1HVztjtbWiyIStJnnp7j-7" value="Ingres el monto" style="html=1;verticalAlign=bottom;endArrow=block;curved=0;rounded=0;exitX=0;exitY=0;exitDx=0;exitDy=5;exitPerimeter=0;" parent="1" edge="1">
          <mxGeometry relative="1" as="geometry">
            <mxPoint x="244" y="280" as="sourcePoint" />
            <mxPoint x="584" y="280" as="targetPoint" />
          </mxGeometry>
        </mxCell>
        <mxCell id="1HVztjtbWiyIStJnnp7j-9" value="Ingresar datos del cliente" style="html=1;verticalAlign=bottom;endArrow=block;curved=0;rounded=0;exitX=0;exitY=0;exitDx=0;exitDy=5;exitPerimeter=0;" parent="1" edge="1">
          <mxGeometry relative="1" as="geometry">
            <mxPoint x="251" y="200" as="sourcePoint" />
            <mxPoint x="591" y="200" as="targetPoint" />
          </mxGeometry>
        </mxCell>
        <mxCell id="1HVztjtbWiyIStJnnp7j-13" value="Ingrese tipo de cuenta" style="html=1;verticalAlign=bottom;endArrow=block;curved=0;rounded=0;exitX=0;exitY=0;exitDx=0;exitDy=5;exitPerimeter=0;" parent="1" edge="1">
          <mxGeometry relative="1" as="geometry">
            <mxPoint x="251" y="360" as="sourcePoint" />
            <mxPoint x="591" y="360" as="targetPoint" />
          </mxGeometry>
        </mxCell>
        <mxCell id="1HVztjtbWiyIStJnnp7j-14" value="Mostrar transferencia" style="html=1;verticalAlign=bottom;endArrow=open;dashed=1;endSize=8;curved=0;rounded=0;" parent="1" edge="1">
          <mxGeometry relative="1" as="geometry">
            <mxPoint x="251" y="520" as="targetPoint" />
            <mxPoint x="591" y="520" as="sourcePoint" />
          </mxGeometry>
        </mxCell>
        <mxCell id="1HVztjtbWiyIStJnnp7j-15" value="Cuenta destino" style="html=1;verticalAlign=bottom;endArrow=block;curved=0;rounded=0;exitX=0;exitY=0;exitDx=0;exitDy=5;exitPerimeter=0;" parent="1" edge="1">
          <mxGeometry relative="1" as="geometry">
            <mxPoint x="251" y="440" as="sourcePoint" />
            <mxPoint x="591" y="440" as="targetPoint" />
          </mxGeometry>
        </mxCell>
        <mxCell id="VcxT9BLt8_aEaI4Dclof-1" value="Diagrama de secuencia transaccion bancaria" style="text;html=1;align=center;verticalAlign=middle;whiteSpace=wrap;rounded=0;fontStyle=1" parent="1" vertex="1">
          <mxGeometry x="300" y="50" width="260" height="30" as="geometry" />
        </mxCell>
      </root>
    </mxGraphModel>
  </diagram>
  <diagram id="l1W_mgKi1srLZQpywkpm" name="Componentes">
    <mxGraphModel dx="1434" dy="746" grid="1" gridSize="10" guides="1" tooltips="1" connect="1" arrows="1" fold="1" page="1" pageScale="1" pageWidth="827" pageHeight="1169" math="0" shadow="0">
      <root>
        <mxCell id="0" />
        <mxCell id="1" parent="0" />
        <mxCell id="FisO0z-UQeKSDhdya0wX-5" value="&lt;p style=&quot;margin:0px;margin-top:6px;text-align:center;&quot;&gt;&lt;b&gt;Microservicio Transaccion&lt;/b&gt;&lt;/p&gt;&lt;hr size=&quot;1&quot; style=&quot;border-style:solid;&quot;&gt;&lt;p style=&quot;margin:0px;margin-left:8px;&quot;&gt;+ Attribute1: Type&lt;br&gt;&lt;br&gt;&lt;/p&gt;" style="align=left;overflow=fill;html=1;dropTarget=0;whiteSpace=wrap;" parent="1" vertex="1">
          <mxGeometry x="280" y="285" width="200" height="70" as="geometry" />
        </mxCell>
        <mxCell id="FisO0z-UQeKSDhdya0wX-6" value="" style="shape=component;jettyWidth=8;jettyHeight=4;" parent="FisO0z-UQeKSDhdya0wX-5" vertex="1">
          <mxGeometry x="1" width="20" height="20" relative="1" as="geometry">
            <mxPoint x="-24" y="4" as="offset" />
          </mxGeometry>
        </mxCell>
        <mxCell id="FisO0z-UQeKSDhdya0wX-12" value="&lt;p style=&quot;margin:0px;margin-top:6px;text-align:center;&quot;&gt;&lt;b&gt;Api&lt;/b&gt;&lt;/p&gt;&lt;hr size=&quot;1&quot; style=&quot;border-style:solid;&quot;&gt;&lt;p style=&quot;margin:0px;margin-left:8px;&quot;&gt;+ Attribute1: Type&lt;br&gt;&lt;br&gt;&lt;/p&gt;" style="align=left;overflow=fill;html=1;dropTarget=0;whiteSpace=wrap;" parent="1" vertex="1">
          <mxGeometry x="40" y="280" width="170" height="80" as="geometry" />
        </mxCell>
        <mxCell id="FisO0z-UQeKSDhdya0wX-13" value="" style="shape=component;jettyWidth=8;jettyHeight=4;" parent="FisO0z-UQeKSDhdya0wX-12" vertex="1">
          <mxGeometry x="1" width="20" height="20" relative="1" as="geometry">
            <mxPoint x="-24" y="4" as="offset" />
          </mxGeometry>
        </mxCell>
        <mxCell id="qI99lWPr3KlLcohfUOW1-6" value="" style="endArrow=none;html=1;rounded=0;exitX=1;exitY=0.5;exitDx=0;exitDy=0;entryX=0;entryY=0.5;entryDx=0;entryDy=0;" parent="1" source="FisO0z-UQeKSDhdya0wX-12" target="FisO0z-UQeKSDhdya0wX-5" edge="1">
          <mxGeometry width="50" height="50" relative="1" as="geometry">
            <mxPoint x="496" y="430" as="sourcePoint" />
            <mxPoint x="400" y="320" as="targetPoint" />
          </mxGeometry>
        </mxCell>
        <mxCell id="w6JZRgVt1E6oH1TC13sY-1" value="return" style="html=1;verticalAlign=bottom;endArrow=open;dashed=1;endSize=8;curved=0;rounded=0;entryX=-0.022;entryY=0.65;entryDx=0;entryDy=0;entryPerimeter=0;exitX=0.75;exitY=1;exitDx=0;exitDy=0;" parent="1" edge="1">
          <mxGeometry relative="1" as="geometry">
            <mxPoint x="480" y="330" as="sourcePoint" />
            <mxPoint x="606.04" y="332" as="targetPoint" />
          </mxGeometry>
        </mxCell>
        <mxCell id="w6JZRgVt1E6oH1TC13sY-2" value="return" style="html=1;verticalAlign=bottom;endArrow=open;dashed=1;endSize=8;curved=0;rounded=0;entryX=0.311;entryY=1.043;entryDx=0;entryDy=0;entryPerimeter=0;" parent="1" edge="1">
          <mxGeometry relative="1" as="geometry">
            <mxPoint x="600" y="300" as="sourcePoint" />
            <mxPoint x="480" y="299" as="targetPoint" />
          </mxGeometry>
        </mxCell>
        <mxCell id="nSvPqmea3TLCSAROutBR-1" value="bdtransaccion" style="shape=cylinder3;whiteSpace=wrap;html=1;boundedLbl=1;backgroundOutline=1;size=15;" vertex="1" parent="1">
          <mxGeometry x="630" y="280" width="60" height="80" as="geometry" />
        </mxCell>
      </root>
    </mxGraphModel>
  </diagram>
</mxfile>
